<?xml version="1.0" standalone="no"?><!DOCTYPE svg PUBLIC "-//W3C//DTD SVG 1.1//EN" "http://www.w3.org/Graphics/SVG/1.1/DTD/svg11.dtd"><svg t="1725345457303" class="icon" viewBox="0 0 1024 1024" version="1.1" xmlns="http://www.w3.org/2000/svg" p-id="1087" xmlns:xlink="http://www.w3.org/1999/xlink" width="200" height="200"><path d="M731.38181855 621.66363594c-11.26363623 28.14545479-30.95454551 53.45454551-50.64545478 75.92727304a225 225 0 0 1-75.92727304 50.67272725c-28.11818145 11.23636377-59.04545449 19.66363594-92.80909073 19.6636368s-64.66363594-5.61818145-92.80909072-19.6636368a357.3545458 357.3545458 0 0 1-75.92727305-50.67272725 224.75454521 224.75454521 0 0 1-50.61818144-75.92727304c-11.29090869-28.09090898-19.71818174-59.07272694-19.71818176-92.80909073 0-19.63636348 2.83636406-39.35454521 5.64545392-56.23636377 5.59090898-19.63636348 11.23636377-36.5454545 19.66363682-53.4545455 8.4545455-16.82727276 19.69090928-30.89999971 30.95454551-47.80909073A189.27272724 189.27272724 0 0 1 371.38181855 332c8.4545455-5.64545479 16.88181855-8.42727305 25.30909073-5.64545479 8.4545455 2.86363653 16.88181855 5.64545479 22.5 14.07272784 5.64545479 8.42727305 8.4545455 16.90909102 5.64545478 25.30909072-2.83636406 8.4545455-5.64545479 16.85454521-14.10000029 22.5-22.50000001 16.88181855-42.16363594 36.57272695-53.42727303 61.85454521-11.23636377 25.36363652-19.71818174 50.64545479-19.71818176 78.76363623 0 22.50000001 5.64545479 45 14.07272696 67.5 8.4545455 22.50000001 22.50000001 39.40909102 36.57272783 53.45454551a164.86363652 164.86363652 0 0 0 53.45454551 36.54545449c21.27272694 9.27272724 44.26363652 14.0454545 67.47272666 14.07272784 22.50000001 0 45-5.61818145 67.52727334-14.07272784 22.50000001-8.42727305 39.38181855-22.50000001 53.42727216-36.54545449a164.86363652 164.86363652 0 0 0 36.5454545-53.45454551c9.27272724-21.30000029 14.0454545-44.26363652 14.10000029-67.5 0-28.09090898-5.61818145-53.42727305-16.85454521-75.92727215-11.26363623-22.50000001-28.14545479-45-50.67272725-59.07272785-8.39999971-5.59090898-11.23636377-14.01818203-14.04545449-22.5-2.83636406-8.42727305 0-16.85454521 5.64545478-25.28181827 5.59090898-8.4545455 14.0454545-11.23636377 22.5-14.07272694 8.42727305-2.80909072 16.82727276 0 25.28181738 5.59090898A261.81818174 261.81818174 0 0 1 692 377c11.23636377 14.07272694 22.50000001 30.92727306 30.92727306 45 8.4545455 16.85454521 14.07272694 33.76363623 19.71818173 50.61818145 5.61818145 16.88181855 5.61818145 36.5454545 5.61818144 56.23636376 2.80909072 33.76363623-2.83636406 64.71818174-16.88181767 92.86363653v-0.0545458zM478.23636377 295.45454551c0-8.42727305 2.83636406-16.85454521 11.26363622-25.33636406 6.57272724-7.00909102 15.70909131-11.04545479 25.30909074-11.23636289 8.4545455 0 16.85454521 2.86363653 22.49999999 11.23636289 7.03636347 6.59999971 11.09999971 15.73636377 11.26363623 25.36363652v202.5c0 8.39999971-2.83636406 16.88181855-11.26363623 22.52727334-5.64545479 5.59090898-14.0454545 11.18181797-22.49999999 11.18181795-8.4545455 0-16.88181855-2.80909072-25.30909074-11.23636375-5.61818145-5.61818145-11.26363623-14.07272694-11.26363622-22.5V295.42727305zM512 62C264.49999999 62 62 264.49999999 62 512S264.49999999 962 512 962 962 759.50000001 962 512 759.50000001 62 512 62z" fill="#00BFFF" p-id="1088"></path></svg>