<svg width="295" height="191" viewBox="0 0 295 191" fill="none" xmlns="http://www.w3.org/2000/svg">
<rect width="295" height="191" rx="30" fill="#6789C6"/>
<path d="M111.674 25C130.823 25 146.348 40.5245 146.348 59.6739V81.7391C146.348 85.0832 145.019 88.2902 142.655 90.6548C140.29 93.0194 137.083 94.3478 133.739 94.3478H111.674C92.5245 94.3478 77 78.8234 77 59.6739C77 40.5245 92.5245 25 111.674 25ZM111.674 100.652H133.739C137.083 100.652 140.29 101.981 142.655 104.345C145.019 106.71 146.348 109.917 146.348 113.261V135.326C146.348 154.476 130.823 170 111.674 170C92.5245 170 77 154.476 77 135.326C77 116.177 92.5245 100.652 111.674 100.652ZM187.326 25C206.476 25 222 40.5245 222 59.6739C222 78.8234 206.476 94.3478 187.326 94.3478H165.261C161.917 94.3478 158.71 93.0194 156.345 90.6548C153.981 88.2902 152.652 85.0832 152.652 81.7391V59.6739C152.652 40.5245 168.177 25 187.326 25ZM165.261 100.652H187.326C206.476 100.652 222 116.177 222 135.326C222 154.476 206.476 170 187.326 170C168.177 170 152.652 154.476 152.652 135.326V113.261C152.652 111.605 152.978 109.965 153.612 108.436C154.246 106.906 155.174 105.516 156.345 104.345C157.516 103.174 158.906 102.246 160.436 101.612C161.965 100.978 163.605 100.652 165.261 100.652Z" fill="white"/>
</svg>
