<svg width="44" height="32" viewBox="0 0 44 32" fill="none" xmlns="http://www.w3.org/2000/svg">
<rect width="44" height="32" rx="4" fill="#004594"/>
<path d="M13 8C13 7.44772 13.4477 7 14 7H20C20.5523 7 21 7.44772 21 8V14C21 14.5523 20.5523 15 20 15H14C13.4477 15 13 14.5523 13 14V8ZM13 18C13 17.4477 13.4477 17 14 17H20C20.5523 17 21 17.4477 21 18V24C21 24.5523 20.5523 25 20 25H14C13.4477 25 13 24.5523 13 24V18ZM23 8C23 7.44772 23.4477 7 24 7H30C30.5523 7 31 7.44772 31 8V14C31 14.5523 30.5523 15 30 15H24C23.4477 15 23 14.5523 23 14V8ZM23 18C23 17.4477 23.4477 17 24 17H30C30.5523 17 31 17.4477 31 18V24C31 24.5523 30.5523 25 30 25H24C23.4477 25 23 24.5523 23 24V18Z" fill="white"/>
</svg>
