<?xml version="1.0" standalone="no"?><!DOCTYPE svg PUBLIC "-//W3C//DTD SVG 1.1//EN" "http://www.w3.org/Graphics/SVG/1.1/DTD/svg11.dtd"><svg t="1779762758304" class="icon" viewBox="0 0 1365 1024" version="1.1" xmlns="http://www.w3.org/2000/svg" p-id="1678" width="341.25" height="256" xmlns:xlink="http://www.w3.org/1999/xlink"><path d="M1081.42814786 493.57451838V1008h-151.42696228V493.75822245h151.40859187v-0.18370407z m167.75822243-150.56355513c4.96 0 9.40562959 3.12296325 11.31614798 7.6053327l6.09896325 14.18192648a104.01303675 104.01303675 0 0 0 54.63348162 54.56l17.23140715 7.25629595c0.27555512 0 0.44088878 0.55111122 0.69807448 0.55111121 0.25718472 0 0.60622243 0.33066634 0.86340714 0.33066634 0.25718472 0 0.4592592 0.55111122 0.69807448 0.55111123 0.23881528 0.16533366 0.66133366 0.496 0.88177756 0.69807447 0.22044488 0.18370405 0.31229593 0.31229593 0.51437041 0.5327408 0.20207447 0.20207447 0.51437041 0.47762959 0.6980735 0.6980735 0.18370405 0.22044488 0.34903675 0.47762959 0.34903772 0.71644487 0.18370405 0.23881528 0.69807447 0.4592592 0.6980735 0.69807448 0 0.25718472 0.51437041 0.4592592 0.5143704 0.73481431 0 0.23881528 0.18370405 0.42251838 0.18370406 0.69807446 0 0.25718472 0.34903675 0.60622243 0.34903675 0.88177758s0.34903675 0.60622243 0.34903675 0.88177755 0.34903675 0.42251838 0.34903773 0.71644487c0 0.27555512 0.18370405 0.58785203 0.18370309 0.88177758v3.54548162c0 0.27555512-0.18370405 0.58785203-0.18370309 0.88177755 0 0.27555512-0.36740716 0.42251838-0.36740813 0.69807448 0 0.29392553-0.33066634 0.62459284-0.33066635 0.90014797s-0.36740716 0.60622243-0.36740715 0.88177755c0 0.25718472-0.16533366 0.62459284-0.16533366 0.88177758 0 0.25718472-0.51437041 0.4592592-0.5143704 0.71644487 0 0.23881528-0.51437041 0.47762959-0.6980735 0.6980735 0 0.23881528-0.14696325 0.496-0.34903772 0.71644488-0.18370405 0.22044488-0.496 0.31229593-0.6980735 0.5327408-0.20207447 0.20207447-0.29392553 0.51437041-0.51437041 0.6980735-0.22044488 0.18370405-0.64296325 0.36740716-0.88177756 0.55111123-0.23881528 0-0.44088878 0.51437041-0.67970406 0.51437039-0.27555512 0-0.62459284 0.36740716-0.88177756 0.36740717-0.25718472 0-0.42251838 0.51437041-0.69807448 0.51437041l-18.44385202 7.9727408c-1.46962959 0.64296325-2.88414797 1.41451838-4.35377757 2.13096325-1.45125918 0.71644487-2.9392592 1.35940716-4.35377756 2.13096325-1.41451838 0.77155513-2.95762959 1.65333366-4.33540716 2.48-1.39614797 0.82666634-2.68207447 1.76355512-4.00474082 2.6453327-1.34103675 0.91851837-2.53511122 1.70844487-3.83940812 2.66370405-1.28592553 0.95525918-2.57185203 2.00237041-3.82103675 3.01274082-1.24918472 1.01037041-2.46162959 1.94725918-3.67407446 3.0127408-1.17570407 1.06548163-2.31466634 2.24118472-3.472 3.36177758-1.13896325 1.12059284-2.38814797 2.20444488-3.49036944 3.36177755-1.08385203 1.17570407-2.07585203 2.49837041-3.12296325 3.7291857-1.0287408 1.21244487-2.14933366 2.27792553-3.12296325 3.54548162-0.97362959 1.26755512-1.87377757 2.75555513-2.79229594 4.07822147a99.95318472 99.95318472 0 0 0-5.05185204 7.95437041 99.16325918 99.16325918 0 0 0-2.25955608 4.2619265c-0.71644487 1.41451838-1.26755512 2.79229593-1.91051838 4.24355512l-6.09896229 13.30014797c0 0.25718472-0.33066634 0.62459284-0.3306673 0.88177853 0 0.25718472-0.53274082 0.27555512-0.53274082 0.5327408 0 0.23881528-0.34903675 0.4592592-0.34903675 0.6980735 0 0.23881528-0.496 0.496-0.69807446 0.71644488-0.18370405 0.22044488-0.31229593 0.496-0.51436944 0.6980735-0.20207447 0.22044488-0.47762959 0.34903675-0.69807448 0.55111123-0.22044488 0.18370405-0.4592592 0.51437041-0.69807446 0.69807447-0.23881528 0.18370405-0.44088878 0.53274082-0.6980735 0.5327408-0.23881528 0-0.60622243 0.36740716-0.86340812 0.36740716-0.25718472 0-0.42251838 0.51437041-0.6980735 0.51437041s-0.42251838 0.18370405-0.69807447 0.18370405-0.75318472 0.34903675-1.04711122 0.34903675c-0.27555512 0-0.40414797 0.18370405-0.6980735 0.18370408s-0.73481528 0.18370405-1.04711123 0.18370309c-0.29392553 0-0.55111122 0.16533366-0.86340714 0.16533366h-1.74518569c-0.29392553 0-0.55111122-0.18370405-0.86340717-0.18370408-0.29392553 0-0.75318472-0.18370405-1.04711121-0.18370308s-0.40414797-0.18370405-0.69807447-0.18370406c-0.27555512 0-0.58785203-0.33066634-0.86340715-0.33066636s-0.60622243-0.18370405-0.86340717-0.18370405c-0.27555512 0-0.44088878-0.53274082-0.69807446-0.53274082-0.27555512 0-0.62459284-0.36740716-0.88177756-0.36740715-0.23881528 0-0.4592592-0.33066634-0.6980735-0.5143704-0.23881528-0.18370405-0.47762959-0.51437041-0.69807448-0.71644488-0.22044488-0.18370405-0.31229593-0.31229593-0.51437039-0.53274082-0.20207447-0.20207447-0.51437041-0.47762959-0.69807448-0.6980735-0.18370405-0.22044488-0.51437041-0.47762959-0.5143704-0.71644488 0-0.23881528-0.53274082-0.4592592-0.53274081-0.6980735 0-0.25718472-0.51437041-0.27555512-0.51436944-0.55111121 0-0.23881528-0.36740716-0.60622243-0.36740812-0.86340812l-5.89688879-13.30014797c-0.64296325-1.45125918-1.37777757-2.82903675-2.09422244-4.24355512a101.22074082 101.22074082 0 0 0-4.70281431-8.32177756 97.91407447 97.91407447 0 0 0-2.60859284-3.89451935c-0.91851837-1.32266634-1.80029595-2.81066634-2.77392553-4.07822147a102.56177755 102.56177755 0 0 0-2.95762959-3.72918568c-1.04711122-1.21244487-2.22281528-2.36977757-3.30666732-3.54548162-1.10222243-1.17570407-2.00237041-2.24118472-3.12296229-3.36177757-1.15733366-1.12059284-2.48-2.29629593-3.67407446-3.36177758-1.19407447-1.06548163-2.38814797-2.16770405-3.65570406-3.19644485-1.24918472-1.01037041-2.53511122-1.87377757-3.82103675-2.82903675a108.55051837 108.55051837 0 0 0-4.00474081-2.82903675c-1.34103675-0.91851837-2.62696325-1.83703675-4.00474081-2.66370407-1.37777757-0.84503675-2.75555513-1.70844487-4.1700735-2.48-1.43288878-0.77155513-2.90251837-1.41451838-4.35377854-2.13096325-1.46962959-0.69807447-2.86577757-1.28592553-4.35377757-1.9472592l-18.44385202-7.9727408c-0.27555512 0-0.60622243-0.34903675-0.88177756-0.34903675-0.25718472 0-0.44088878-0.53274082-0.6980735-0.53274083-0.23881528 0-0.44088878-0.36740716-0.69807447-0.36740714-0.23881528-0.16533366-0.4592592-0.496-0.67970407-0.69807448-0.23881528-0.18370405-0.496-0.496-0.6980735-0.6980735-0.22044488-0.22044488-0.496-0.31229593-0.69807446-0.55111121-0.18370405-0.20207447-0.34903675-0.4592592-0.53274081-0.69807447-0.18370405-0.23881528-0.51437041-0.4592592-0.51437041-0.6980735 0-0.25718472-0.51437041-0.4592592-0.51437041-0.71644487 0-0.25718472-0.36740716-0.44088878-0.36740716-0.6980735 0-0.27555512-0.33066634-0.62459284-0.33066634-0.90014895s-0.36740716-0.60622243-0.36740812-0.88177755-0.16533366-0.58785203-0.16533269-0.88177758-0.18370405-0.58785203-0.18370406-0.88177755v-0.90014797-0.88177853-0.6980735-1.06548162c0-0.29392553 0.18370405-0.60622243 0.18370406-0.88177758 0-0.29392553 0.18370405-0.44088878 0.18370309-0.71644487s0.34903675-0.60622243 0.34903772-0.88177755 0.34903675-0.62459284 0.34903675-0.88177758c0-0.27555512 0.34903675-0.4592592 0.34903675-0.71644487 0-0.25718472 0.51437041-0.4592592 0.51437041-0.69807446 0-0.25718472 0.34903675-0.47762959 0.51437041-0.73481431 0.18370405-0.22044488 0.33066634-0.47762959 0.53274081-0.69807448 0.18370405-0.22044488 0.47762959-0.496 0.69807446-0.6980735 0.20207447-0.22044488 0.4592592-0.34903675 0.6980735-0.55111121 0.22044488-0.18370405 0.44088878-0.51437041 0.67970407-0.69807447 0.25718472 0 0.4592592-0.53274082 0.69807447-0.53274082 0.25718472 0 0.44088878-0.34903675 0.6980735-0.34903675 0.27555512 0 0.60622243-0.53274082 0.88177756-0.5327408l17.23140813-7.25629595a104.85807447 104.85807447 0 0 0 54.63348162-54.56l5.91525919-14.1819265c0-0.27555512 0.53274082-0.60622243 0.53274081-0.88177755 0-0.25718472 0.51437041-0.62459284 0.51436944-0.88177758 0-0.25718472 0.53274082-0.4592592 0.53274081-0.71644487 0-0.23881528 0.14696325-0.47762959 0.34903772-0.6980735 0.18370405-0.23881528 0.47762959-0.496 0.67970309-0.71644488l0.53274082-0.5327408 0.86340812-0.6980735c0.23881528-0.18370405 0.4592592-0.36740716 0.6980735-0.36740812 0.25718472 0 0.60622243-0.53274082 0.88177756-0.53273985 0.25718472 0 0.40414797-0.51437041 0.67970407-0.5143704 0.29392553 0 0.60622243-0.18370405 0.88177756-0.18370408s0.56948162-0.36740716 0.86340715-0.36740714 0.40414797-0.16533366 0.69807447-0.16533366 0.73481528-0.18370405 1.04711121-0.18370407c0.29392553 0 0.55111122-0.18370405 0.86340717-0.18370309h1.04711121zM1026.59259274 16c9.424 0 17.94785203 5.40088878 21.41985203 13.81451837l21.56681431 50.31644488c18.18666634 42.98666634 52.94340716 77.43111122 96.77511121 96.35259188l56.56237041 24.45096324c18.59081528 8.02785203 18.59081528 34.04029595 0 41.97629691l-58.65659284 25.16740717c-42.656 18.44385203-76.60444488 51.78607447-95.1952592 93.35822243l-21.23614796 47.12c0 0.23881528-0.34903675 0.4592592-0.34903675 0.6980735 0 0.23881528-0.34903675 0.47762959-0.34903772 0.71644487 0 0.23881528-0.34903675 0.4592592-0.34903675 0.6980735 0 0.23881528-0.34903675 0.47762959-0.34903675 0.71644488 0 0.22044488-0.51437041 0.47762959-0.5143704 0.6980735 0 0.23881528-0.53274082 0.31229593-0.53274081 0.55111121 0 0.20207447-0.51437041 0.47762959-0.51437041 0.69807446s-0.34903675 0.496-0.51437041 0.69807448c-0.18370405 0.22044488-0.18370405 0.51437041-0.36740716 0.73481431-0.18370405 0.18370405-0.496 0.31229593-0.67970406 0.51437041-0.18370405 0.18370405-0.496 0.34903675-0.6980735 0.5327408-0.20207447 0.18370405-0.31229593 0.34903675-0.53274082 0.53274083-0.18370405 0.18370405-0.47762959 0.53274082-0.67970405 0.5327408-0.22044488 0-0.31229593 0.53274082-0.53274082 0.53274082s-0.64296325 0.53274082-0.86340715 0.5327408c-0.23881528 0-0.29392553 0.53274082-0.53274081 0.53274083-0.22044488 0-0.62459284 0.34903675-0.86340717 0.34903675-0.23881528 0-0.27555512 0.53274082-0.51437039 0.5327408-0.25718472 0-0.62459284 0.18370405-0.88177854 0.1837031-0.23881528 0-0.44088878 0.51437041-0.6980735 0.5143704-0.23881528 0-0.60622243 0.18370405-0.86340715 0.18370407-0.25718472 0-0.44088878 0.36740716-0.69807447 0.36740716-0.25718472 0-0.60622243 0.16533366-0.86340716 0.16533364-0.27555512 0-0.44088878 0.36740716-0.69807447 0.36740717-0.27555512 0-0.60622243 0.16533366-0.88177757 0.16533366-0.25718472 0-0.42251838 0.18370405-0.69807446 0.18370309-0.25718472 0-0.58785203 0.18370405-0.86340716 0.18370406s-0.58785203 0.16533366-0.86340715 0.16533365-0.42251838 0.18370405-0.69807448 0.1837031h-5.05185202c-0.27555512 0-0.58785203-0.18370405-0.86340716-0.1837031s-0.60622243-0.18370405-0.88177757-0.18370405c-0.25718472 0-0.42251838-0.18370405-0.67970405-0.1837031-0.27555512 0-0.78992553-0.18370405-1.04711122-0.18370406-0.27555512 0-0.44088878-0.16533366-0.6980735-0.16533367-0.27555512 0-0.44088878-0.36740716-0.69807448-0.36740714-0.25718472 0-0.60622243-0.16533366-0.86340714-0.16533366-0.27555512 0-0.44088878-0.34903675-0.69807448-0.34903675-0.25718472 0-0.62459284-0.18370405-0.88177756-0.18370407-0.25718472 0-0.44088878-0.53274082-0.6980735-0.5327408-0.23881528 0-0.62459284-0.18370405-0.86340812-0.1837031-0.23881528 0-0.27555512-0.51437041-0.51437041-0.5143704-0.23881528 0-0.64296325-0.36740716-0.88177756-0.36740716-0.22044488 0-0.29392553-0.51437041-0.51437041-0.51437042s-0.47762959-0.55111122-0.6980735-0.55111121-0.47762959-0.51437041-0.69807446-0.51437041-0.496-0.36740716-0.69807448-0.55111121c-0.20207447-0.16533366-0.496-0.33066634-0.6980735-0.51437042l-0.5143704-0.5327408-0.53274081-0.53274082c-0.18370405-0.18370405-0.33066634-0.496-0.51437042-0.69807446-0.18370405-0.22044488-0.51437041-0.496-0.51437039-0.73481431 0-0.18370405-0.53274082-0.47762959-0.53274082-0.69807448s-0.34903675-0.29392553-0.34903675-0.5327408c0-0.22044488-0.51437041-0.47762959-0.51437041-0.6980735 0-0.23881528-0.53274082-0.47762959-0.53274081-0.71644488 0-0.23881528-0.34903675-0.4592592-0.34903675-0.6980735 0-0.23881528-0.34903675-0.47762959-0.34903771-0.71644487 0-0.23881528-0.33066634-0.4592592-0.33066636-0.6980735l-21.23614796-47.12-1.74518568-3.7291857c-0.60622243-1.28592553-1.28592553-2.46162959-1.91051838-3.7108143-0.64296325-1.26755512-1.24918472-2.66370407-1.92888878-3.91288975-0.66133366-1.23081528-1.37777757-2.48-2.07585203-3.71081433-0.69807447-1.23081528-1.54311122-2.33303675-2.25955513-3.54548162-0.73481528-1.21244487-1.34103675-2.51674082-2.09422243-3.7108143-0.75318472-1.21244487-1.46962959-2.38814797-2.25955513-3.54548163l-2.44326016-3.54548162c-0.80829593-1.15733366-1.59822243-2.22281528-2.42488878-3.36177758-0.84503675-1.15733366-1.57985203-2.24118472-2.44325918-3.38014892-0.86340716-1.10222243-1.89214797-2.25955513-2.79229594-3.36177758-0.88177757-1.10222243-1.85540716-2.09422245-2.7739265-3.1780735-0.91851837-1.10222243-1.83703675-2.31466634-2.79229594-3.38014892-0.93688878-1.04711122-1.81866634-2.13096325-2.77392553-3.1780735-0.97362959-1.04711122-1.96562959-2.00237041-2.95762959-3.01274083-0.992-1.0287408-2.13096325-2.02074082-3.12296325-3.0127408-1.0287408-0.992-1.76355512-2.03911122-2.79229594-3.01274082-1.04711122-0.97362959-2.25955513-1.89214797-3.30666731-2.82903675-1.06548163-0.95525918-2.22281528-1.91051838-3.30666636-2.84740715-1.10222243-0.91851837-2.20444488-1.74518472-3.30666633-2.64533365-1.10222243-0.91851837-2.02074082-1.78192553-3.14133367-2.66370408a195.46074082 195.46074082 0 0 0-3.49037039-2.64533267c-1.13896325-0.86340716-2.48-1.65333366-3.65570407-2.48-1.15733366-0.82666634-2.11259284-1.69007447-3.30666634-2.48-1.17570407-0.80829593-2.44325918-1.72681528-3.63733366-2.48-1.21244487-0.77155513-2.44325918-1.39614797-3.6740735-2.13096325-1.21244487-0.73481528-2.57185203-1.41451838-3.82103772-2.13096325-1.23081528-0.71644487-2.38814797-1.43288878-3.65570309-2.13096325-1.24918472-0.67970405-2.38814797-1.46962959-3.65570406-2.11259188-1.28592553-0.66133366-2.70044488-1.32266634-4.00474081-1.9472592-1.28592553-0.64296325-2.51674082-1.17570407-3.82103675-1.7819265a185.09985203 185.09985203 0 0 0-4.00474082-1.76355512l-58.30755512-25.16740715c-0.25718472 0-0.44088878-0.18370405-0.69807447-0.18370406-0.23881528 0-0.60622243-0.51437041-0.86340716-0.51437042-0.23881528 0-0.44088878-0.36740716-0.69807447-0.36740714-0.23881528 0-0.62459284-0.34903675-0.86340715-0.34903773-0.23881528 0-0.29392553-0.53274082-0.51437042-0.5327408-0.23881528 0-0.47762959-0.53274082-0.69807446-0.53273985-0.23881528 0-0.47762959-0.51437041-0.6980735-0.5143704s-0.47762959-0.18370405-0.69807447-0.36740813-0.496-0.51437041-0.6980735-0.6980735c-0.20207447-0.18370405-0.33066634-0.34903675-0.5143704-0.55111122a31.68888878 31.68888878 0 0 1-0.69807447-0.69807448c-0.18370405-0.18370405-0.18370405-0.31229593-0.36740716-0.5327408-0.18370405-0.20207447-0.51437041-0.496-0.67970406-0.6980735-0.18370405-0.22044488-0.53274082-0.31229593-0.53274081-0.55111122 0-0.20207447-0.34903675-0.4592592-0.34903675-0.69807448 0-0.22044488-0.69807447-0.47762959-0.69807447-0.6980735 0-0.23881528-0.34903675-0.47762959-0.34903675-0.71644487 0-0.23881528-0.33066634-0.4592592-0.33066634-0.7164439 0-0.23881528-0.53274082-0.4592592-0.53274082-0.69807448 0-0.23881528-0.34903675-0.4592592-0.34903772-0.71644487 0-0.23881528-0.34903675-0.44088878-0.34903675-0.6980735 0-0.25718472-0.18370405-0.62459284-0.18370309-0.88177755 0-0.25718472-0.33066634-0.4592592-0.33066731-0.71644488 0-0.25718472-0.36740716-0.62459284-0.36740717-0.88177757 0-0.27555512-0.16533366-0.44088878-0.16533364-0.71644488 0-0.25718472-0.18370405-0.60622243-0.18370311-0.88177755s-0.16533366-0.44088878-0.16533364-0.71644487c0-0.25718472-0.16533366-0.60622243-0.16533366-0.88177758v-0.88177755-0.88177757c0-0.27555512-0.18370405-0.25718472-0.18370309-0.55111121v-0.86340717-0.90014892c0-0.25718472 0.18370405-0.60622243 0.18370309-0.88177758v-0.6980735-0.90014892c0-0.25718472 0.18370405-0.60622243 0.18370405-0.88177758 0-0.25718472 0.16533366-0.44088878 0.16533367-0.6980735 0-0.27555512 0.18370405-0.62459284 0.18370308-0.90014892 0-0.25718472 0.16533366-0.44088878 0.16533367-0.6980735 0-0.25718472 0.34903675-0.62459284 0.34903675-0.88177758 0-0.27555512 0.34903675-0.4592592 0.34903675-0.71644487 0-0.25718472 0.18370405-0.62459284 0.18370406-0.88177755 0-0.25718472 0.33066634-0.4592592 0.33066634-0.71644488 0-0.23881528 0.36740716-0.4592592 0.36740813-0.6980735 0-0.25718472 0.51437041-0.47762959 0.51437041-0.71644487 0-0.23881528 0.33066634-0.4592592 0.33066634-0.6980735 0-0.23881528 0.36740716-0.47762959 0.36740716-0.71644488 0-0.23881528 0.67970405-0.47762959 0.67970406-0.71644487 0-0.22044488 0.36740716-0.29392553 0.36740715-0.51437041s0.33066634-0.496 0.51437041-0.73481431c0.18370405-0.18370405 0.51437041-0.47762959 0.69807447-0.69807448 0.18370405-0.20207447 0.14696325-0.33066634 0.34903675-0.5327408a28.10666634 28.10666634 0 0 1 0.69807447-0.6980735l0.5143704-0.55111122c0.20207447-0.18370405 0.47762959-0.33066634 0.6980735-0.51437041 0.20207447-0.18370405 0.47762959-0.53274082 0.69807447-0.53274082s0.4592592-0.53274082 0.6980735-0.5327408c0.22044488 0 0.4592592-0.53274082 0.69807446-0.53274083 0.22044488 0 0.27555512-0.36740716 0.51437042-0.36740714 0.23881528 0 0.62459284-0.51437041 0.86340715-0.51437041 0.25718472 0 0.4592592-0.53274082 0.69807447-0.53274082 0.25718472 0 0.62459284-0.18370405 0.86340716-0.18370405 0.25718472 0 0.44088878-0.34903675 0.69807447-0.34903675l56.58074081-24.43259285c1.34103675-0.58785203 2.66370407-0.992 3.98636944-1.59822148 1.34103675-0.62459284 2.51674082-1.30429595 3.83940812-1.94725917l4.1700735-2.13096325c1.30429595-0.67970405 2.53511122-1.24918472 3.82103771-1.9472592 1.28592553-0.71644487 2.57185203-1.39614797 3.83940717-2.13096325 1.28592553-0.73481528 2.57185203-1.70844487 3.82103675-2.48 1.26755512-0.77155513 2.42488878-1.32266634 3.67407446-2.13096325 1.21244487-0.78992553 2.60859284-1.83703675 3.82103675-2.64533268 1.21244487-0.82666634 2.27792553-1.63496325 3.49037041-2.48 1.17570407-0.86340716 2.46162959-1.61659284 3.63733366-2.48 1.17570407-0.88177757 2.14933366-1.76355512 3.30666634-2.66370407l3.49037041-2.82903675c1.12059284-0.91851837 2.20444488-1.87377757 3.30666634-2.82903771 1.10222243-0.97362959 2.20444488-1.85540716 3.30666732-2.84740717 1.06548163-0.97362959 2.24118472-2.00237041 3.30666634-3.0127408 1.04711122-0.992 2.09422245-1.984 3.12296325-3.01274082a175.29007447 175.29007447 0 0 0 6.09896228-6.37451838c0.97362959-1.06548163 1.83703675-2.09422245 2.7739265-3.1780735 0.95525918-1.10222243 1.85540716-2.25955513 2.79229594-3.38014892 0.91851837-1.10222243 1.87377757-2.20444488 2.7739265-3.36177758a176.46577755 176.46577755 0 0 0 5.21718471-6.90725918c0.86340716-1.17570407 1.63496325-2.51674082 2.44325919-3.71081432 0.80829593-1.21244487 1.65333366-2.33303675 2.44325918-3.54548162 0.78992553-1.23081528 1.50637041-2.48 2.25955611-3.72918568 0.75318472-1.23081528 1.54311122-2.46162959 2.25955512-3.71081432 0.73481528-1.26755512 1.39614797-2.62696325 2.09422244-3.89451838 0.69807447-1.28592553 1.43288878-2.44325918 2.09422244-3.72918568l1.91051837-3.89451837c0.62459284-1.28592553 1.13896325-2.57185203 1.72681431-3.89451837 0.60622243-1.32266634 1.17570407-2.57185203 1.74518569-3.89451838L1005.55851827 29.81451838c0-0.25718472 0.34903675-0.4592592 0.34903771-0.6980735 0-0.25718472 0.34903675-0.47762959 0.34903675-0.71644488 0-0.23881528 0.34903675-0.4592592 0.34903675-0.71644487 0-0.23881528 0.51437041-0.4592592 0.51437041-0.6980735 0-0.23881528 0.36740716-0.47762959 0.36740717-0.71644488 0-0.22044488 0.33066634-0.47762959 0.3306673-0.6980735 0-0.23881528 0.69807447-0.496 0.6980735-0.71644487s0.34903675-0.31229593 0.53274082-0.53274083c0.18370405-0.20207447 0.33066634-0.496 0.5143704-0.6980735 0.18370405-0.22044488 0.33066634-0.51437041 0.5143704-0.71644487 0.18370405-0.18370405 0.496-0.33066634 0.69807447-0.5327408 0.20207447-0.18370405 0.31229593-0.34903675 0.53274082-0.53274083 0.20207447-0.18370405 0.47762959-0.34903675 0.6980735-0.5327408 0.20207447-0.18370405 0.29392553-0.53274082 0.51437041-0.53274082s0.64296325-0.53274082 0.86340715-0.5327408c0.23881528 0 0.29392553-0.51437041 0.53274081-0.51437041 0.23881528 0 0.62459284-0.36740716 0.86340813-0.36740717 0.23881528 0 0.27555512-0.36740716 0.53274081-0.36740714 0.23881528 0 0.60622243-0.51437041 0.86340715-0.51437041 0.25718472 0 0.44088878-0.36740716 0.6980735-0.36740716 0.25718472 0 0.60622243-0.34903675 0.86340813-0.34903771 0.25718472 0 0.44088878-0.18370405 0.6980735-0.1837031 0.25718472 0 0.60622243-0.33066634 0.86340812-0.33066731 0.27555512 0 0.60622243-0.18370405 0.88177758-0.18370309 0.25718472 0 0.42251838-0.36740716 0.6980735-0.36740716s0.58785203-0.18370405 0.86340812-0.18370406 0.42251838-0.16533366 0.6980735-0.16533366h1.04711121c0.27555512 0 0.40414797-0.18370405 0.69807447-0.18370309 0.27555512 0 0.75318472-0.16533366 1.02874082-0.16533366h1.57985105-0.18370309z m-750.4296296 73.51822245h249.72681431L778.95999989 1008h-155.04592553l-58.3259265-212.03081528H236.48296314L178.3407407 1008H23.11111111L276.16296314 89.51822243z m-0.53274081 565.07259283h250.9576296l-116.94577757-423.8962969h-17.3967408l-116.61511123 423.91466634z" fill="#ffffff" p-id="1679"></path></svg>