<?xml version="1.0" standalone="no"?><!DOCTYPE svg PUBLIC "-//W3C//DTD SVG 1.1//EN" "http://www.w3.org/Graphics/SVG/1.1/DTD/svg11.dtd"><svg t="1782179503417" class="icon" viewBox="0 0 1024 1024" version="1.1" xmlns="http://www.w3.org/2000/svg" p-id="3799" xmlns:xlink="http://www.w3.org/1999/xlink" width="200" height="200"><path d="M20.48 524.288c0 102.4 81.92 184.32 184.32 184.32h28.672v-24.576c0-32.768 16.384-61.44 40.96-81.92v-12.288c0-28.672 12.288-57.344 32.768-77.824l16.384-16.384c20.48-20.48 49.152-32.768 77.824-32.768h12.288c20.48-24.576 49.152-40.96 81.92-40.96h24.576c32.768 0 61.44 16.384 81.92 40.96h12.288c28.672 0 57.344 12.288 77.824 32.768l16.384 16.384c20.48 20.48 32.768 49.152 32.768 77.824v12.288c24.576 20.48 40.96 49.152 40.96 81.92v24.576h40.96c102.4 0 184.32-81.92 184.32-184.32s-81.92-184.32-184.32-184.32c-20.48-81.92-94.208-143.36-180.224-143.36-36.864 0-69.632 12.288-102.4 28.672-36.864-53.248-98.304-90.112-163.84-90.112-110.592 0-200.704 90.112-200.704 200.704v4.096C86.016 356.352 20.48 434.176 20.48 524.288z" p-id="3800" fill="#ffffff"></path><path d="M352.256 655.36c-16.384 0-28.672 12.288-28.672 24.576v24.576c0 12.288 12.288 24.576 28.672 24.576h4.096c12.288 0 20.48 8.192 24.576 16.384 4.096 12.288 4.096 20.48-4.096 28.672-12.288 12.288-12.288 28.672 0 36.864l16.384 16.384c12.288 12.288 28.672 12.288 36.864 0l4.096-4.096c8.192-8.192 16.384-8.192 28.672-4.096 8.192 4.096 16.384 12.288 16.384 24.576v16.384c0 16.384 12.288 24.576 24.576 24.576h24.576c16.384 0 24.576-12.288 24.576-24.576v-4.096c0-12.288 8.192-20.48 16.384-24.576 8.192-4.096 20.48 0 28.672 4.096v4.096c12.288 12.288 28.672 12.288 36.864 0l20.48-20.48c12.288-12.288 12.288-28.672 0-36.864-8.192-8.192-8.192-20.48-4.096-28.672 4.096-8.192 12.288-16.384 24.576-16.384h4.096c16.384 0 24.576-12.288 24.576-24.576v-24.576c0-12.288-12.288-24.576-24.576-24.576h-4.096c-12.288 0-20.48-8.192-24.576-16.384 0-4.096-4.096-8.192-4.096-12.288 0-8.192 4.096-12.288 8.192-16.384V614.4c12.288-12.288 12.288-28.672 0-36.864l-16.384-16.384c-12.288-12.288-28.672-8.192-36.864 0v4.096c-8.192 8.192-20.48 8.192-28.672 4.096-8.192-4.096-16.384-12.288-16.384-24.576V532.48c0-12.288-12.288-24.576-24.576-24.576h-24.576c-16.384 0-24.576 12.288-24.576 24.576v4.096c0 12.288-8.192 20.48-16.384 24.576-8.192 4.096-20.48 4.096-28.672-4.096l-4.096-4.096c-12.288-12.288-28.672-12.288-36.864 0l-28.672 16.384c-12.288 12.288-12.288 28.672 0 36.864v4.096c8.192 8.192 8.192 20.48 4.096 28.672 0 12.288-8.192 16.384-20.48 16.384z m159.744-20.48c32.768 0 61.44 24.576 61.44 57.344s-28.672 57.344-61.44 57.344S450.56 729.088 450.56 696.32s28.672-61.44 61.44-61.44z" p-id="3801" fill="#ffffff"></path></svg>