<?xml version="1.0" encoding="UTF-8"?>
<!DOCTYPE svg PUBLIC "-//W3C//DTD SVG 1.1//EN" "http://www.w3.org/Graphics/SVG/1.1/DTD/svg11.dtd">
<svg xmlns="http://www.w3.org/2000/svg" version="1.1" width="190px" height="192px" style="shape-rendering:geometricPrecision; text-rendering:geometricPrecision; image-rendering:optimizeQuality; fill-rule:evenodd; clip-rule:evenodd" xmlns:xlink="http://www.w3.org/1999/xlink">
<g><path style="opacity:1" fill="#0093ea" d="M 85.5,-0.5 C 93.5,-0.5 101.5,-0.5 109.5,-0.5C 110.14,9.55784 109.473,19.2245 107.5,28.5C 104.167,28.5 100.833,28.5 97.5,28.5C 93.5,28.5 89.5,28.5 85.5,28.5C 85.5,18.8333 85.5,9.16667 85.5,-0.5 Z"/></g>
<g><path style="opacity:1" fill="#0085e2" d="M 83.5,-0.5 C 84.1667,-0.5 84.8333,-0.5 85.5,-0.5C 85.5,9.16667 85.5,18.8333 85.5,28.5C 78.0928,29.4482 70.7594,30.7815 63.5,32.5C 63.5,23.1667 63.5,13.8333 63.5,4.5C 70.2143,2.56255 76.881,0.895882 83.5,-0.5 Z"/></g>
<g><path style="opacity:1" fill="#00a0ef" d="M 109.5,-0.5 C 109.833,-0.5 110.167,-0.5 110.5,-0.5C 117.703,0.718041 124.703,2.71804 131.5,5.5C 132.14,15.5578 131.473,25.2245 129.5,34.5C 125.789,33.6557 122.123,32.6557 118.5,31.5C 114.858,30.3934 111.191,29.3934 107.5,28.5C 109.473,19.2245 110.14,9.55784 109.5,-0.5 Z"/></g>
<g><path style="opacity:1" fill="#0078dd" d="M 63.5,4.5 C 63.5,13.8333 63.5,23.1667 63.5,32.5C 55.2789,36.2797 47.2789,40.6131 39.5,45.5C 39.5,36.1667 39.5,26.8333 39.5,17.5C 46.8929,12.1353 54.8929,7.80199 63.5,4.5 Z"/></g>
<g><path style="opacity:1" fill="#00aef6" d="M 131.5,5.5 C 146.499,10.4212 159.332,18.7545 170,30.5C 165.518,37.1612 160.018,43.1612 153.5,48.5C 146.124,42.8103 138.124,38.1437 129.5,34.5C 131.473,25.2245 132.14,15.5578 131.5,5.5 Z"/></g>
<g><path style="opacity:1" fill="#37c8f8" d="M 85.5,28.5 C 89.5,28.5 93.5,28.5 97.5,28.5C 97.5,33.5 97.5,38.5 97.5,43.5C 70.9664,35.4781 46.9664,40.1447 25.5,57.5C 29.7539,53.0365 34.4206,49.0365 39.5,45.5C 47.2789,40.6131 55.2789,36.2797 63.5,32.5C 70.7594,30.7815 78.0928,29.4482 85.5,28.5 Z"/></g>
<g><path style="opacity:1" fill="#54d2f9" d="M 97.5,28.5 C 100.833,28.5 104.167,28.5 107.5,28.5C 111.191,29.3934 114.858,30.3934 118.5,31.5C 117.508,38.9818 117.175,46.6484 117.5,54.5C 115.668,53.7515 114.001,52.7515 112.5,51.5C 107.98,48.0713 102.98,45.4046 97.5,43.5C 97.5,38.5 97.5,33.5 97.5,28.5 Z"/></g>
<g><path style="opacity:1" fill="#006cd6" d="M 39.5,17.5 C 39.5,26.8333 39.5,36.1667 39.5,45.5C 34.4206,49.0365 29.7539,53.0365 25.5,57.5C 22.4728,59.8605 19.8062,62.5271 17.5,65.5C 17.5,57.1667 17.5,48.8333 17.5,40.5C 23.4361,31.5624 30.7695,23.8957 39.5,17.5 Z"/></g>
<g><path style="opacity:1" fill="#6bdbfa" d="M 118.5,31.5 C 122.123,32.6557 125.789,33.6557 129.5,34.5C 138.124,38.1437 146.124,42.8103 153.5,48.5C 146.854,55.8123 139.854,62.8123 132.5,69.5C 127.812,64.1456 122.812,59.1456 117.5,54.5C 117.175,46.6484 117.508,38.9818 118.5,31.5 Z"/></g>
<g><path style="opacity:1" fill="#0052a3" d="M 97.5,43.5 C 102.98,45.4046 107.98,48.0713 112.5,51.5C 104.617,49.7807 96.6172,49.114 88.5,49.5C 64.8236,52.8723 47.1569,64.8723 35.5,85.5C 33.5954,88.3037 31.9287,91.3037 30.5,94.5C 21.4225,93.2177 12.4225,91.5511 3.5,89.5C 7.15735,80.8436 11.824,72.8436 17.5,65.5C 19.8062,62.5271 22.4728,59.8605 25.5,57.5C 46.9664,40.1447 70.9664,35.4781 97.5,43.5 Z"/></g>
<g><path style="opacity:1" fill="#0062d2" d="M 17.5,40.5 C 17.5,48.8333 17.5,57.1667 17.5,65.5C 11.824,72.8436 7.15735,80.8436 3.5,89.5C 2.14059,93.2526 0.807255,96.9192 -0.5,100.5C -0.5,94.8333 -0.5,89.1667 -0.5,83.5C 1.60532,70.9195 5.77199,58.9195 12,47.5C 13.6971,44.98 15.5305,42.6467 17.5,40.5 Z"/></g>
<g><path style="opacity:1" fill="#0eb0f7" d="M 88.5,49.5 C 68.3055,53.3605 55.9722,65.3605 51.5,85.5C 46.1667,85.5 40.8333,85.5 35.5,85.5C 47.1569,64.8723 64.8236,52.8723 88.5,49.5 Z"/></g>
<g><path style="opacity:1" fill="#0059ad" d="M 3.5,89.5 C 12.4225,91.5511 21.4225,93.2177 30.5,94.5C 28.3122,100.286 26.9789,106.286 26.5,112.5C 26.5,113.5 26.5,114.5 26.5,115.5C 25.8386,116.718 25.1719,118.051 24.5,119.5C 16.6056,117.321 8.60556,115.654 0.5,114.5C 0.784479,112.585 0.451145,110.919 -0.5,109.5C -0.5,106.5 -0.5,103.5 -0.5,100.5C 0.807255,96.9192 2.14059,93.2526 3.5,89.5 Z"/></g>
<g><path style="opacity:1" fill="#33bef9" d="M 35.5,85.5 C 40.8333,85.5 46.1667,85.5 51.5,85.5C 51.4431,86.609 51.1098,87.609 50.5,88.5C 49.326,96.3469 49.326,104.347 50.5,112.5C 42.5,112.5 34.5,112.5 26.5,112.5C 26.9789,106.286 28.3122,100.286 30.5,94.5C 31.9287,91.3037 33.5954,88.3037 35.5,85.5 Z"/></g>
<g><path style="opacity:1" fill="#0001f8" d="M 137.5,105.5 C 132.639,109.382 129.306,114.382 127.5,120.5C 125.425,126.391 123.758,132.391 122.5,138.5C 120.896,139.287 120.229,140.62 120.5,142.5C 113.219,143.071 106.219,142.405 99.5,140.5C 101.902,130.464 105.402,120.797 110,111.5C 111.5,110 113,108.5 114.5,107C 122.08,105.604 129.747,105.104 137.5,105.5 Z"/></g>
<g><path style="opacity:1" fill="#061883" d="M 189.5,112.5 C 189.5,118.833 189.5,125.167 189.5,131.5C 182.914,132.626 176.247,132.792 169.5,132C 168.167,125.333 168.167,118.667 169.5,112C 176.247,111.208 182.914,111.374 189.5,112.5 Z"/></g>
<g><path style="opacity:1" fill="#041582" d="M 137.5,105.5 C 141.362,106.524 144.195,108.857 146,112.5C 148.079,116.653 149.579,120.986 150.5,125.5C 143.833,125.5 137.167,125.5 130.5,125.5C 129.313,123.928 128.313,122.261 127.5,120.5C 129.306,114.382 132.639,109.382 137.5,105.5 Z"/></g>
<g><path style="opacity:1" fill="#0176dc" d="M 50.5,88.5 C 50.3265,101.98 54.3265,113.98 62.5,124.5C 59.5,124.5 56.5,124.5 53.5,124.5C 52.5003,120.501 51.5003,116.501 50.5,112.5C 49.326,104.347 49.326,96.3469 50.5,88.5 Z"/></g>
<g><path style="opacity:1" fill="#0d3195" d="M 130.5,125.5 C 137.167,125.5 143.833,125.5 150.5,125.5C 151.871,127.936 152.871,130.603 153.5,133.5C 146.5,133.5 139.5,133.5 132.5,133.5C 131.226,131.007 130.56,128.341 130.5,125.5 Z"/></g>
<g><path style="opacity:1" fill="#5dcbf9" d="M 26.5,112.5 C 34.5,112.5 42.5,112.5 50.5,112.5C 51.5003,116.501 52.5003,120.501 53.5,124.5C 56.2453,130.325 59.2453,135.992 62.5,141.5C 51.4476,140.857 40.7809,141.524 30.5,143.5C 27.5442,134.54 26.2108,125.207 26.5,115.5C 26.5,114.5 26.5,113.5 26.5,112.5 Z"/></g>
<g><path style="opacity:1" fill="#1448a6" d="M 132.5,133.5 C 139.5,133.5 146.5,133.5 153.5,133.5C 154.652,137.107 155.652,140.773 156.5,144.5C 149.5,144.5 142.5,144.5 135.5,144.5C 134.348,140.893 133.348,137.227 132.5,133.5 Z"/></g>
<g><path style="opacity:1" fill="#0092e9" d="M 53.5,124.5 C 56.5,124.5 59.5,124.5 62.5,124.5C 72.5251,135.009 84.8584,140.342 99.5,140.5C 99.5,141.833 99.5,143.167 99.5,144.5C 98.8333,144.5 98.5,144.833 98.5,145.5C 87.5,145.5 76.5,145.5 65.5,145.5C 64.5,144.167 63.5,142.833 62.5,141.5C 59.2453,135.992 56.2453,130.325 53.5,124.5 Z"/></g>
<g><path style="opacity:1" fill="#001bed" d="M 99.5,140.5 C 106.219,142.405 113.219,143.071 120.5,142.5C 119.976,144.306 119.309,145.972 118.5,147.5C 112.167,147.5 105.833,147.5 99.5,147.5C 99.5,146.5 99.5,145.5 99.5,144.5C 99.5,143.167 99.5,141.833 99.5,140.5 Z"/></g>
<g><path style="opacity:1" fill="#016bc6" d="M 0.5,114.5 C 8.60556,115.654 16.6056,117.321 24.5,119.5C 25.1719,118.051 25.8386,116.718 26.5,115.5C 26.2108,125.207 27.5442,134.54 30.5,143.5C 31.9666,148.429 33.9666,153.096 36.5,157.5C 30.6228,157.333 24.6228,156.333 18.5,154.5C 9.27568,142.711 3.27568,129.377 0.5,114.5 Z"/></g>
<g><path style="opacity:1" fill="#002ae8" d="M 99.5,144.5 C 99.5,145.5 99.5,146.5 99.5,147.5C 105.833,147.5 112.167,147.5 118.5,147.5C 118.5,148.833 118.5,150.167 118.5,151.5C 111.922,152.46 105.255,152.793 98.5,152.5C 98.5,151.5 98.5,150.5 98.5,149.5C 98.5,148.167 98.5,146.833 98.5,145.5C 98.5,144.833 98.8333,144.5 99.5,144.5 Z"/></g>
<g><path style="opacity:1" fill="#06198f" d="M 189.5,145.5 C 189.5,147.833 189.5,150.167 189.5,152.5C 182.5,152.5 175.5,152.5 168.5,152.5C 168.779,149.882 169.446,147.382 170.5,145C 176.915,144.21 183.248,144.376 189.5,145.5 Z"/></g>
<g><path style="opacity:1" fill="#1d66ba" d="M 135.5,144.5 C 142.5,144.5 149.5,144.5 156.5,144.5C 157.709,149.885 159.043,155.218 160.5,160.5C 153.5,160.5 146.5,160.5 139.5,160.5C 139.416,157.673 138.75,155.006 137.5,152.5C 137.5,151.833 137.167,151.5 136.5,151.5C 136.326,149.139 135.993,146.806 135.5,144.5 Z"/></g>
<g><path style="opacity:1" fill="#80d8f9" d="M 62.5,141.5 C 63.5,142.833 64.5,144.167 65.5,145.5C 74.0382,156.706 85.0382,164.372 98.5,168.5C 112.499,174.209 126.833,174.876 141.5,170.5C 142.634,173.37 143.3,176.37 143.5,179.5C 143.5,179.833 143.5,180.167 143.5,180.5C 129.41,186.979 114.744,190.645 99.5,191.5C 98.1667,191.5 96.8333,191.5 95.5,191.5C 86.3069,190.995 77.3069,189.328 68.5,186.5C 55.3129,179.648 44.6463,169.981 36.5,157.5C 33.9666,153.096 31.9666,148.429 30.5,143.5C 40.7809,141.524 51.4476,140.857 62.5,141.5 Z"/></g>
<g><path style="opacity:1" fill="#0412a1" d="M 168.5,152.5 C 175.5,152.5 182.5,152.5 189.5,152.5C 189.5,154.833 189.5,157.167 189.5,159.5C 188.833,159.5 188.5,159.833 188.5,160.5C 181.167,160.5 173.833,160.5 166.5,160.5C 167.371,157.888 168.037,155.221 168.5,152.5 Z"/></g>
<g><path style="opacity:1" fill="#01a6f2" d="M 122.5,138.5 C 127.141,142.805 131.807,147.139 136.5,151.5C 137.167,151.5 137.5,151.833 137.5,152.5C 138.75,155.006 139.416,157.673 139.5,160.5C 140.15,162.435 140.483,164.435 140.5,166.5C 126.396,166.29 112.396,166.957 98.5,168.5C 85.0382,164.372 74.0382,156.706 65.5,145.5C 76.5,145.5 87.5,145.5 98.5,145.5C 98.5,146.833 98.5,148.167 98.5,149.5C 97.5655,150.568 97.2322,151.901 97.5,153.5C 96.5386,155.265 96.2053,157.265 96.5,159.5C 95.5386,161.265 95.2053,163.265 95.5,165.5C 102.175,165.666 108.842,165.5 115.5,165C 116.252,164.329 116.586,163.496 116.5,162.5C 116.5,161.833 116.5,161.167 116.5,160.5C 117.038,158.883 117.371,157.216 117.5,155.5C 117.833,154.167 118.167,152.833 118.5,151.5C 118.5,150.167 118.5,148.833 118.5,147.5C 119.309,145.972 119.976,144.306 120.5,142.5C 120.229,140.62 120.896,139.287 122.5,138.5 Z"/></g>
<g><path style="opacity:1" fill="#008deb" d="M 96.5,159.5 C 96.5,159.833 96.5,160.167 96.5,160.5C 96.5,161.5 96.5,162.5 96.5,163.5C 103.255,163.793 109.922,163.46 116.5,162.5C 116.586,163.496 116.252,164.329 115.5,165C 108.842,165.5 102.175,165.666 95.5,165.5C 95.2053,163.265 95.5386,161.265 96.5,159.5 Z"/></g>
<g><path style="opacity:1" fill="#0076e7" d="M 96.5,160.5 C 103.167,160.5 109.833,160.5 116.5,160.5C 116.5,161.167 116.5,161.833 116.5,162.5C 109.922,163.46 103.255,163.793 96.5,163.5C 96.5,162.5 96.5,161.5 96.5,160.5 Z"/></g>
<g><path style="opacity:1" fill="#025be1" d="M 97.5,153.5 C 103.75,155.459 110.416,156.126 117.5,155.5C 117.371,157.216 117.038,158.883 116.5,160.5C 109.833,160.5 103.167,160.5 96.5,160.5C 96.5,160.167 96.5,159.833 96.5,159.5C 96.2053,157.265 96.5386,155.265 97.5,153.5 Z"/></g>
<g><path style="opacity:1" fill="#0240e7" d="M 98.5,149.5 C 98.5,150.5 98.5,151.5 98.5,152.5C 105.255,152.793 111.922,152.46 118.5,151.5C 118.167,152.833 117.833,154.167 117.5,155.5C 110.416,156.126 103.75,155.459 97.5,153.5C 97.2322,151.901 97.5655,150.568 98.5,149.5 Z"/></g>
<g><path style="opacity:1" fill="#2582ce" d="M 139.5,160.5 C 146.5,160.5 153.5,160.5 160.5,160.5C 160.833,163.167 161.167,165.833 161.5,168.5C 154.833,168.5 148.167,168.5 141.5,168.5C 141.167,167.833 140.833,167.167 140.5,166.5C 140.483,164.435 140.15,162.435 139.5,160.5 Z"/></g>
<g><path style="opacity:1" fill="#0db7f9" d="M 140.5,166.5 C 140.833,167.167 141.167,167.833 141.5,168.5C 141.5,169.167 141.5,169.833 141.5,170.5C 126.833,174.876 112.499,174.209 98.5,168.5C 112.396,166.957 126.396,166.29 140.5,166.5 Z"/></g>
<g><path style="opacity:1" fill="#037bda" d="M 18.5,154.5 C 24.6228,156.333 30.6228,157.333 36.5,157.5C 44.6463,169.981 55.3129,179.648 68.5,186.5C 47.3981,182.726 30.7314,172.059 18.5,154.5 Z"/></g>
<g><path style="opacity:1" fill="#2c95dc" d="M 141.5,168.5 C 148.167,168.5 154.833,168.5 161.5,168.5C 161.833,169.167 162.167,169.833 162.5,170.5C 162.5,171.5 162.5,172.5 162.5,173.5C 161.167,175.5 159.833,177.5 158.5,179.5C 153.5,179.5 148.5,179.5 143.5,179.5C 143.3,176.37 142.634,173.37 141.5,170.5C 141.5,169.833 141.5,169.167 141.5,168.5 Z"/></g>
<g><path style="opacity:1" fill="#000ac0" d="M 166.5,160.5 C 173.833,160.5 181.167,160.5 188.5,160.5C 187.796,165.29 186.129,169.623 183.5,173.5C 176.5,173.5 169.5,173.5 162.5,173.5C 162.5,172.5 162.5,171.5 162.5,170.5C 164.346,167.46 165.679,164.127 166.5,160.5 Z"/></g>
<g><path style="opacity:1" fill="#0007d8" d="M 162.5,173.5 C 169.5,173.5 176.5,173.5 183.5,173.5C 182.674,176.485 181.341,179.151 179.5,181.5C 172.167,181.5 164.833,181.5 157.5,181.5C 157.833,180.833 158.167,180.167 158.5,179.5C 159.833,177.5 161.167,175.5 162.5,173.5 Z"/></g>
<g><path style="opacity:1" fill="#35aff1" d="M 143.5,179.5 C 148.5,179.5 153.5,179.5 158.5,179.5C 158.167,180.167 157.833,180.833 157.5,181.5C 155.292,185.277 152.625,188.61 149.5,191.5C 148.5,191.5 147.5,191.5 146.5,191.5C 144.726,188.074 143.726,184.407 143.5,180.5C 143.5,180.167 143.5,179.833 143.5,179.5 Z"/></g>
<g><path style="opacity:1" fill="#0103f1" d="M 157.5,181.5 C 164.833,181.5 172.167,181.5 179.5,181.5C 177.292,185.277 174.625,188.61 171.5,191.5C 164.167,191.5 156.833,191.5 149.5,191.5C 152.625,188.61 155.292,185.277 157.5,181.5 Z"/></g>
</svg>
